<?xml version="1.0" standalone="no"?>
<!DOCTYPE svg PUBLIC "-//W3C//DTD SVG 20010904//EN"
 "http://www.w3.org/TR/2001/REC-SVG-20010904/DTD/svg10.dtd">
<svg version="1.0" xmlns="http://www.w3.org/2000/svg"
 width="450.000000pt" height="450.000000pt" viewBox="0 0 450.000000 450.000000"
 preserveAspectRatio="xMidYMid meet">
<metadata>
Created by potrace 1.10, written by Peter Selinger 2001-2011
</metadata>
<g transform="translate(0.000000,450.000000) scale(0.050000,-0.050000)"
fill="#27be13" stroke="none">
<path d="M4395 8866 c36 -5 94 -5 130 0 36 4 7 8 -65 8 -71 0 -101 -4 -65 -8z"/>
<path d="M4446 8465 c52 -4 133 -4 180 0 46 5 3 8 -96 8 -99 0 -137 -4 -84 -8z"/>
<path d="M6240 7380 c-11 -7 -58 -10 -103 -6 -45 3 -115 -3 -154 -13 -47 -13
-79 -13 -91 -1 -24 24 -92 27 -92 4 0 -27 -200 -29 -232 -3 -20 17 -28 18 -28
1 0 -12 -10 -22 -21 -22 -12 0 -16 9 -9 20 7 11 -1 14 -19 8 -17 -7 -26 -20
-20 -30 6 -10 -18 -18 -54 -18 -61 0 -63 2 -26 29 34 26 35 30 5 30 -18 1 -38
-15 -45 -35 -11 -36 -151 -51 -182 -19 -8 7 -33 3 -57 -10 -23 -13 -49 -22
-57 -19 -8 2 -15 -5 -15 -16 0 -12 -18 -12 -51 0 -34 13 -47 13 -39 0 18 -28
-17 -25 -49 5 -21 20 -24 20 -13 0 15 -25 6 -28 -118 -35 -33 -1 -91 -13 -130
-25 -38 -12 -101 -27 -140 -33 -38 -5 -109 -20 -157 -32 -47 -11 -101 -19
-120 -15 -18 3 -31 -4 -29 -16 2 -11 -25 -23 -59 -25 -34 -3 -73 -14 -85 -24
-12 -10 -52 -21 -87 -24 -36 -2 -75 -16 -87 -31 -12 -15 -39 -20 -61 -13 -33
10 -37 5 -25 -32 12 -38 8 -42 -28 -32 -23 7 -59 17 -80 23 -21 6 -44 1 -51
-10 -8 -12 6 -21 33 -22 42 0 43 -2 9 -22 -26 -15 -43 -15 -59 1 -36 36 -58
25 -43 -21 9 -28 6 -38 -9 -28 -12 7 -22 3 -22 -9 0 -12 -8 -17 -18 -11 -10 6
-23 -3 -29 -19 -7 -18 -37 -30 -72 -30 -41 0 -61 -10 -61 -30 0 -17 -18 -30
-40 -30 -22 0 -40 -9 -40 -20 0 -11 -10 -20 -22 -20 -13 0 -55 -27 -95 -61
-114 -95 -123 -101 -123 -90 0 6 -16 -3 -35 -19 -19 -17 -42 -30 -51 -29 -9 1
-35 -22 -57 -50 -22 -28 -48 -46 -59 -40 -10 6 -18 -7 -18 -29 0 -55 -33 -71
-46 -22 -7 27 -21 36 -42 28 -24 -9 -29 -4 -20 20 9 25 4 29 -23 19 -29 -11
-33 -5 -25 41 8 37 3 51 -13 45 -14 -5 -37 -2 -52 8 -16 10 -38 8 -53 -5 -14
-11 -43 -16 -64 -11 -27 7 -56 -10 -94 -56 -31 -37 -63 -62 -72 -57 -9 6 -16
-5 -16 -24 0 -19 -25 -58 -57 -86 -31 -29 -62 -68 -69 -88 -8 -20 -23 -31 -34
-24 -11 7 -15 -1 -9 -16 6 -16 -3 -34 -20 -41 -16 -6 -25 -25 -19 -41 6 -17
-6 -38 -30 -51 -23 -12 -42 -40 -42 -62 0 -21 -9 -39 -20 -39 -11 0 -20 -22
-20 -49 0 -27 -9 -54 -20 -61 -11 -7 -20 -30 -20 -52 0 -22 -13 -44 -30 -51
-16 -6 -30 -27 -30 -47 0 -20 -14 -41 -31 -48 -17 -6 -26 -21 -19 -32 7 -11 3
-20 -9 -20 -11 0 -21 -27 -21 -60 0 -33 -10 -60 -22 -60 -13 0 -19 -21 -13
-49 5 -28 2 -45 -7 -40 -22 14 -46 -82 -30 -122 6 -17 3 -26 -7 -20 -25 16
-36 -7 -43 -89 -3 -38 -13 -80 -22 -92 -9 -12 -18 -71 -21 -130 -3 -59 -11
-113 -19 -119 -8 -6 -14 -150 -14 -320 2 -486 -2 -585 -26 -651 -19 -55 -17
-69 21 -109 32 -35 37 -52 20 -72 -25 -31 14 -95 45 -76 28 17 21 -5 -10 -36
-30 -30 -20 -64 59 -221 15 -31 19 -50 9 -44 -11 7 -14 -2 -8 -19 7 -17 20
-31 30 -31 10 0 18 -13 18 -30 0 -16 -9 -30 -20 -30 -11 0 -2 -18 20 -40 22
-22 40 -49 40 -60 0 -34 5 -47 52 -136 25 -47 40 -101 34 -118 -8 -20 -5 -28
8 -20 12 8 33 0 46 -16 13 -16 33 -25 42 -19 10 6 18 -3 18 -21 0 -68 54 -96
100 -50 32 32 49 36 79 20 48 -25 61 -25 61 0 0 11 -13 20 -30 20 -16 0 -30
15 -30 34 0 26 5 29 24 10 34 -34 63 -30 49 6 -16 41 5 90 39 90 15 0 28 9 28
20 0 11 -9 20 -21 20 -14 0 -14 13 1 40 12 22 36 40 55 40 26 0 28 5 9 24 -29
29 -32 83 -4 66 22 -14 26 5 20 120 -2 44 -11 84 -20 90 -67 41 -51 205 59
587 63 218 184 649 341 1213 184 661 193 685 244 669 59 -19 166 -16 209 6 20
11 63 16 94 11 41 -6 52 -1 41 16 -10 17 -4 21 19 12 21 -8 33 -3 33 15 0 17
14 24 40 17 22 -6 40 -1 40 12 0 12 27 22 60 22 33 0 60 9 60 20 0 11 18 20
40 20 22 0 40 8 40 18 0 11 29 29 65 41 64 22 240 161 203 161 -132 -1 -1106
-348 -1164 -414 -482 -549 -721 -1564 -567 -2411 15 -79 7 -135 -43 -327 -72
-271 -76 -270 -205 30 -442 1022 -211 2528 513 3350 l87 98 25 -128 c15 -70
36 -176 48 -234 l21 -106 55 76 c138 190 580 521 942 705 783 400 1967 550
3743 475 l92 -4 -66 -60 c-36 -33 -336 -398 -665 -812 -795 -997 -621 -901
-1648 -913 -876 -11 -794 17 -810 -273 l-12 -212 838 0 c696 0 1301 -8 1323
-18 30 -12 -52 -339 -117 -465 -161 -316 -316 -353 -1492 -356 l-464 -1 -13
-75 c-191 -1096 -641 -1785 -1331 -2034 -65 -24 -115 -47 -110 -52 5 -5 -20
-10 -54 -11 -34 -2 -65 -12 -69 -22 -3 -11 -30 -16 -58 -10 -39 7 -50 2 -43
-18 12 -37 91 -40 104 -5 7 17 43 27 100 27 49 0 96 10 103 21 7 12 37 16 67
9 38 -8 70 1 107 29 28 23 79 47 113 54 34 6 71 24 83 38 12 15 35 22 50 16
16 -6 29 -2 29 9 0 23 90 114 114 114 9 0 55 38 103 84 47 46 103 90 124 96
22 7 44 34 51 61 7 26 29 53 50 60 21 6 39 22 41 35 2 13 5 33 8 44 2 11 5 30
7 42 1 13 24 18 52 13 29 -6 50 0 50 13 0 12 -18 22 -41 22 -40 0 -40 0 -1 42
21 23 50 68 63 100 13 32 32 53 41 47 10 -6 18 7 18 29 0 22 9 45 20 52 12 7
16 20 11 28 -17 28 81 62 107 36 16 -16 22 -13 22 12 0 23 -16 34 -50 34 -27
0 -50 9 -50 20 0 11 9 20 19 20 11 0 25 32 32 70 8 39 21 70 31 70 10 0 18 14
18 32 0 20 11 28 30 21 17 -7 30 -3 30 8 0 10 -13 19 -30 19 -34 0 -41 51 -9
71 12 7 17 25 11 40 -6 15 -2 33 9 40 10 6 19 28 19 49 0 31 12 36 75 29 l75
-8 -65 22 c-58 20 -93 77 -47 77 10 0 23 14 30 31 6 18 3 26 -8 19 -45 -28 3
100 50 135 13 9 11 14 -3 15 -70 1 21 107 93 109 17 1 28 11 26 24 -3 16 78
20 290 13 162 -5 303 -8 314 -7 11 2 178 6 370 10 193 4 350 9 350 11 0 2 23
7 50 12 28 5 64 14 80 21 34 15 66 24 113 34 18 3 44 21 57 40 13 18 39 33 57
33 19 0 51 29 73 65 22 36 40 54 40 40 0 -14 10 -25 21 -25 12 0 19 17 15 38
-3 21 10 55 30 77 19 22 39 57 43 78 4 22 25 70 46 108 21 38 35 80 30 94 -5
14 0 25 10 25 10 0 19 11 20 25 1 14 7 61 14 105 6 44 12 94 14 110 1 17 12
43 25 59 17 22 16 25 -5 13 -18 -11 -48 6 -90 51 -66 70 -225 146 -243 117 -6
-9 -37 -10 -69 0 -32 9 -64 10 -71 3 -37 -37 -290 -13 -290 27 -1 32 -4 34
-19 11 -10 -16 -14 -36 -9 -44 4 -7 -84 -15 -197 -17 -188 -2 -698 -2 -745 1
-11 1 -53 -7 -93 -17 -50 -13 -81 -12 -95 2 -15 15 -36 14 -71 -2 -31 -14 -51
-15 -51 -4 0 11 -26 20 -58 20 -65 0 -107 39 -84 77 9 14 14 47 11 73 -5 47
-4 48 168 42 95 -2 189 3 208 12 21 11 35 10 35 -2 0 -10 31 -18 68 -16 37 2
64 11 59 19 -12 19 41 20 60 2 19 -19 174 -21 186 -2 5 9 17 11 26 5 31 -18
381 -26 392 -8 7 11 27 10 48 -1 19 -11 41 -15 47 -8 20 20 154 18 154 -3 0
-11 9 -6 20 10 11 17 20 22 20 12 0 -10 16 -3 37 15 20 18 42 27 50 20 7 -8
13 -3 13 10 0 12 18 23 40 23 22 0 40 9 40 20 0 11 9 20 20 20 35 0 200 151
253 232 22 34 44 45 70 37 20 -6 37 -2 37 10 0 11 -9 21 -20 21 -11 0 -10 20
4 50 12 28 29 50 36 50 7 0 24 23 37 51 13 28 31 46 41 40 9 -6 28 16 41 48
14 32 50 78 82 102 32 24 54 51 49 59 -5 9 4 27 20 40 17 14 30 18 30 9 0 -9
13 1 28 22 16 21 25 45 20 52 -5 8 9 27 32 42 22 16 34 34 27 41 -7 7 11 23
40 36 29 14 53 41 53 60 0 20 16 45 35 56 19 12 27 21 17 21 -10 1 0 17 21 36
22 19 46 51 53 71 8 20 22 32 32 25 10 -6 24 13 31 43 11 42 18 48 32 25 15
-24 18 -23 19 6 0 19 9 35 20 35 11 0 20 14 20 30 0 17 9 30 20 30 12 0 30 23
40 50 10 28 29 50 41 50 12 0 16 9 9 20 -7 11 2 26 19 32 17 7 31 24 31 38 0
15 10 30 22 34 31 10 100 196 73 196 -12 0 -17 5 -11 11 20 19 -100 129 -141
129 -22 0 -45 7 -51 16 -5 9 -56 13 -113 9 -59 -4 -114 3 -131 16 -15 13 -28
16 -28 6 0 -21 -79 -24 -110 -4 -26 16 -724 13 -750 -3z m-3664 -2520 c-1
-119 -8 -160 -27 -160 -15 0 -33 -10 -41 -23 -9 -14 -5 -18 9 -9 16 10 19 -5
10 -50 -10 -50 -7 -61 13 -48 17 11 21 8 12 -7 -8 -13 -24 -18 -34 -12 -12 8
-15 -7 -7 -37 7 -30 3 -56 -13 -65 -17 -11 -21 -3 -13 28 6 24 4 43 -4 43 -21
0 -2 239 21 284 10 18 18 57 18 85 0 41 37 131 53 131 3 0 4 -72 3 -160z
m-147 -435 c-4 -344 -7 -388 -32 -373 -14 9 -18 54 -11 130 7 82 3 115 -13
112 -28 -5 -19 124 11 161 11 13 15 39 8 56 -10 26 16 109 34 109 3 0 4 -88 3
-195z"/>
<path d="M4475 7366 c36 -5 94 -5 130 0 36 4 7 8 -65 8 -71 0 -101 -4 -65 -8z"/>
<path d="M6650 7136 c-66 -10 -138 -22 -160 -25 -22 -3 -40 -8 -40 -10 0 -2
-40 -9 -89 -14 -49 -5 -104 -18 -124 -28 -23 -13 -39 -11 -49 4 -9 15 -19 12
-31 -10 -12 -21 -41 -29 -87 -26 -39 3 -70 -2 -70 -11 0 -10 -18 -8 -40 4 -22
12 -40 14 -40 6 0 -20 -115 -86 -150 -86 -15 0 -30 -9 -34 -21 -3 -11 -96 -29
-206 -40 -715 -71 -1380 -254 -1890 -521 -219 -115 -526 -328 -574 -399 l-33
-49 49 41 c339 288 1766 731 3478 1078 303 62 559 115 570 120 41 16 -364 5
-480 -13z"/>
<path d="M7140 7050 c-163 -65 -335 -110 -845 -221 -129 -28 -561 -155 -960
-281 -399 -127 -867 -275 -1040 -330 -197 -63 -315 -110 -315 -127 0 -14 -100
-381 -221 -814 -271 -963 -414 -1508 -427 -1620 -1 -8 -9 -20 -17 -29 -8 -8
-15 -33 -15 -56 -1 -151 -260 -654 -429 -836 -32 -34 -46 -67 -39 -90 8 -26 6
-29 -7 -10 -15 21 -24 19 -47 -9 -24 -30 -24 -32 0 -18 19 12 24 10 14 -6 -8
-13 -22 -19 -30 -14 -8 5 -82 -59 -163 -141 -82 -83 -214 -201 -294 -262 -80
-61 -145 -117 -145 -125 0 -19 94 -14 113 7 10 11 6 12 -11 2 -20 -11 -24 -9
-13 9 9 15 35 19 66 12 40 -10 48 -7 38 18 -6 17 -2 31 9 31 11 0 14 10 7 21
-8 13 2 19 24 15 21 -3 36 6 37 24 0 17 17 30 37 30 46 0 92 62 83 110 -4 20
6 42 22 48 18 7 27 1 24 -14 -3 -14 3 -27 14 -29 11 -2 19 13 18 34 -2 26 7
34 28 26 19 -7 25 -3 17 10 -7 11 1 26 17 32 17 7 31 32 32 57 2 32 5 36 12
12 8 -31 11 -31 46 -1 21 18 34 39 28 48 -12 19 64 98 80 83 6 -6 7 8 3 31 -5
24 0 43 10 43 11 0 19 13 19 30 0 16 21 35 48 41 35 9 45 22 37 51 -8 30 -2
36 26 25 24 -9 31 -6 21 10 -8 12 -5 23 6 23 11 0 16 13 10 29 -6 15 16 57 50
92 34 35 56 72 50 82 -19 31 15 64 36 34 13 -19 16 -11 8 26 -9 40 -4 52 20
50 25 -2 33 17 36 82 2 56 17 97 45 123 29 27 39 55 32 90 -6 31 -1 52 13 52
12 0 22 23 22 50 0 28 10 50 22 50 17 0 16 8 -1 28 -19 24 -16 27 21 17 42
-11 43 -7 30 92 -8 65 -6 103 7 103 11 0 26 25 33 55 8 30 21 64 30 76 9 11
19 54 24 94 4 40 18 85 31 101 13 16 21 41 17 56 -4 16 -4 21 1 13 22 -39 42
-9 25 36 -15 37 -12 67 9 108 16 31 24 62 17 68 -7 7 -2 13 12 13 13 0 18 10
11 22 -8 12 -2 30 13 39 15 9 28 33 29 53 3 69 34 166 53 166 10 0 13 9 6 20
-7 11 2 20 20 20 26 0 28 7 7 45 -13 25 -22 47 -20 50 42 56 82 158 73 186 -8
25 4 47 39 70 38 25 46 41 31 59 -15 19 -9 28 25 38 41 12 42 15 11 39 -49 37
-35 141 20 149 36 6 39 13 23 58 -21 55 -8 126 22 126 11 0 20 34 21 75 2 41
7 59 12 40 21 -81 51 -32 38 63 -12 95 -11 100 48 129 38 19 56 22 47 7 -8
-13 3 -10 25 8 56 47 100 58 126 32 16 -16 22 -13 22 12 0 19 14 35 30 37 35
2 47 5 100 26 81 30 96 31 126 6 22 -17 27 -18 17 -1 -17 30 58 74 100 58 16
-7 24 -3 17 8 -7 12 14 20 49 20 37 0 67 12 74 30 6 16 18 25 27 20 8 -5 43 5
77 22 35 17 72 25 83 18 11 -7 20 -4 20 5 0 22 140 67 163 53 9 -6 17 -2 17 9
0 17 176 69 235 70 14 0 25 7 25 16 0 9 7 16 15 14 8 -2 42 8 75 22 33 14 80
26 105 28 25 2 45 8 45 15 0 7 25 11 55 9 30 -2 76 10 102 25 27 16 42 18 34
6 -20 -33 7 -27 43 9 21 21 50 28 84 20 39 -9 45 -7 22 8 -25 17 -24 21 10 22
22 1 58 7 80 12 22 6 63 13 90 18 28 4 73 13 100 21 28 8 88 15 134 16 46 1
75 7 63 14 -11 7 -2 17 21 23 24 7 42 2 42 -11 0 -15 8 -14 24 2 31 31 63 31
44 1 -10 -17 -3 -20 24 -10 33 11 34 9 8 -12 -16 -14 -33 -39 -36 -55 -3 -17
-22 -44 -42 -61 -20 -17 -47 -51 -60 -75 -13 -25 -34 -39 -46 -31 -13 7 -17 4
-9 -8 7 -12 -23 -64 -68 -116 -45 -52 -96 -116 -113 -142 -17 -26 -37 -42 -46
-37 -9 5 -21 -11 -27 -36 -14 -54 -85 -139 -143 -171 -26 -14 -30 -22 -11 -22
21 -1 18 -9 -10 -29 -21 -16 -48 -23 -59 -17 -11 6 -14 5 -7 -4 18 -19 -62
-111 -97 -111 -14 0 -26 -7 -26 -16 0 -27 -127 -64 -180 -52 -40 9 -44 7 -20
-11 24 -17 16 -22 -40 -23 -38 -1 -151 -4 -250 -7 -119 -4 -185 1 -195 16 -10
17 -14 16 -15 -2 0 -14 -16 -25 -35 -25 -30 1 -31 3 -5 20 18 12 20 20 6 20
-13 0 -29 -8 -35 -18 -6 -10 -52 -19 -101 -19 -64 0 -86 7 -76 24 8 14 1 13
-19 -3 -32 -26 -283 -31 -325 -7 -35 21 -104 26 -72 5 17 -11 -20 -16 -100
-14 -91 3 -139 -5 -166 -27 -33 -27 -37 -27 -24 -1 8 17 -4 5 -28 -25 -24 -30
-53 -49 -65 -42 -12 7 -15 4 -8 -9 8 -11 -3 -33 -24 -48 -25 -17 -42 -61 -51
-126 -16 -131 -16 -145 -4 -245 11 -85 -68 -412 -109 -454 -28 -28 -23 -84 8
-84 16 0 25 18 22 46 -3 26 3 47 13 47 10 0 18 18 18 40 0 22 9 40 20 40 11 0
20 13 20 29 0 53 32 50 97 -9 34 -32 63 -53 63 -46 0 6 13 0 28 -13 20 -16 32
-16 42 -2 7 12 22 16 33 9 31 -19 298 -22 310 -4 5 9 20 11 31 3 12 -7 199
-16 414 -18 497 -7 486 -6 474 -26 -6 -9 2 -16 18 -16 16 0 24 6 19 14 -7 12
221 12 251 0 6 -2 68 -5 140 -7 145 -4 176 -38 101 -113 -22 -22 -39 -43 -36
-46 10 -12 -82 -116 -98 -111 -9 2 -37 -7 -63 -21 -25 -14 -108 -27 -184 -29
-77 -2 -140 -11 -140 -19 0 -7 -21 -6 -47 4 -25 9 -58 10 -72 2 -19 -12 -396
-27 -551 -23 -224 7 -370 5 -388 -6 -12 -8 -22 -5 -22 6 0 13 -21 13 -61 -1
-33 -12 -79 -16 -102 -11 -22 6 -36 6 -30 0 15 -14 -90 -98 -113 -91 -9 4 -11
-3 -4 -15 7 -11 1 -20 -12 -20 -14 0 -19 -6 -12 -13 8 -7 5 -24 -6 -37 -10
-13 -23 -45 -28 -72 -5 -26 -11 -52 -13 -58 -2 -5 -2 -30 0 -55 2 -24 -3 -56
-12 -70 -21 -33 -30 -75 -29 -131 1 -25 -6 -42 -15 -36 -9 5 -16 -5 -16 -24 0
-103 -9 -145 -28 -133 -12 7 -20 1 -18 -14 11 -83 -2 -141 -31 -130 -16 7 -30
3 -30 -8 0 -10 10 -19 21 -19 26 0 3 -84 -29 -105 -12 -8 -16 -15 -8 -15 19 0
-24 -120 -43 -120 -8 0 -13 -20 -11 -45 2 -25 -3 -49 -10 -55 -8 -5 -43 -66
-78 -135 -34 -69 -71 -125 -80 -125 -10 0 -28 -28 -40 -62 -13 -39 -29 -56
-45 -46 -14 8 -18 6 -10 -7 7 -11 -6 -42 -29 -68 -22 -26 -34 -34 -26 -19 9
19 6 23 -9 14 -13 -8 -19 -22 -14 -31 15 -23 -39 -64 -59 -46 -9 8 -10 5 -3
-8 7 -13 -39 -68 -111 -130 -68 -59 -116 -93 -107 -77 9 17 -2 11 -25 -13 -43
-45 -255 -153 -299 -153 -14 -1 -25 -9 -25 -20 0 -10 -18 -14 -40 -8 -22 6
-40 2 -40 -8 0 -10 -9 -18 -19 -18 -11 0 -14 15 -7 33 9 24 6 29 -14 17 -17
-11 -21 -8 -12 7 8 13 23 19 32 13 9 -6 23 -2 30 10 7 11 32 20 56 20 36 1 39
4 14 21 -27 18 -27 22 0 39 58 37 72 51 117 115 25 36 60 65 78 65 17 0 26 6
18 13 -7 7 5 26 26 41 22 15 34 40 28 57 -8 20 -2 26 18 18 36 -14 64 38 72
137 2 20 11 32 20 26 24 -15 100 94 112 160 5 30 20 61 32 69 12 7 22 19 21
26 -14 100 0 156 31 130 30 -24 33 -22 22 18 -6 25 -3 50 7 56 10 7 14 20 8
29 -6 9 -1 23 10 30 11 7 15 21 9 31 -6 11 -3 19 8 19 11 0 14 19 8 43 -8 29
-4 39 12 29 14 -9 18 -3 11 15 -6 16 8 66 31 110 22 45 41 100 41 123 0 23 9
37 20 30 12 -7 14 2 6 22 -9 25 -6 30 13 19 20 -13 20 -7 2 27 -15 28 -15 42
-2 42 12 0 21 18 21 39 0 60 43 141 68 127 12 -7 16 -5 8 3 -8 9 -6 33 5 54
14 25 14 37 0 37 -12 0 -21 9 -21 20 0 11 7 19 15 18 37 -6 53 4 30 19 -19 12
-17 24 11 54 19 22 32 55 28 75 -4 20 3 49 16 64 13 16 18 38 11 49 -8 13 0
15 21 7 22 -8 30 -5 21 8 -7 12 1 55 18 96 30 72 26 117 -8 79 -16 -18 -248
-638 -269 -719 -29 -109 -338 -902 -377 -966 -237 -390 -884 -934 -1176 -988
-165 -31 -401 -43 -401 -20 0 18 116 49 200 53 17 0 28 12 25 25 -2 14 8 20
23 14 15 -6 41 4 59 22 18 18 40 28 49 23 18 -11 144 45 144 64 0 7 -21 23
-47 35 -50 23 -129 -13 -118 -54 3 -11 -7 -17 -22 -14 -33 7 -394 -166 -383
-183 4 -7 -8 -13 -26 -14 -19 0 -61 -8 -94 -17 l-60 -16 42 48 c24 26 51 64
62 84 15 29 307 175 346 174 27 -2 -95 -79 -125 -80 -19 0 -35 -8 -35 -18 0
-10 -20 -23 -45 -30 -25 -6 -67 -30 -95 -52 l-50 -40 80 32 c337 137 671 371
971 681 198 204 359 404 359 444 0 28 -33 30 -50 3 -7 -11 -3 -20 9 -20 11 0
5 -17 -14 -37 -19 -21 -39 -37 -45 -37 -32 2 -120 -57 -120 -80 0 -16 10 -22
23 -14 14 8 18 5 10 -7 -7 -12 -30 -17 -51 -11 -31 8 -36 1 -27 -47 l10 -57
-40 45 -40 45 0 -51 c0 -29 -10 -62 -22 -74 -17 -17 -23 -17 -23 1 0 13 -9 24
-21 24 -11 0 -18 -11 -15 -25 7 -32 -80 -120 -104 -105 -10 6 -25 -12 -32 -41
-9 -37 -19 -46 -35 -30 -30 30 -54 26 -41 -8 8 -20 0 -25 -30 -17 -30 7 -42 1
-42 -22 0 -17 -9 -32 -20 -32 -11 0 -20 -13 -20 -30 0 -17 -18 -30 -41 -30
-24 0 -36 -9 -28 -21 7 -12 -6 -27 -29 -33 -23 -6 -42 -21 -42 -33 0 -13 -36
-44 -80 -69 -68 -38 -80 -40 -80 -13 0 18 -11 28 -25 24 -14 -5 -22 -25 -19
-44 5 -24 -5 -32 -32 -27 -21 3 -54 -8 -75 -24 -21 -17 -30 -19 -22 -5 9 14 6
25 -6 25 -39 0 -51 -9 -45 -33 3 -16 -11 -22 -37 -17 -27 5 -61 -11 -96 -46
-54 -56 -67 -64 -103 -64 -10 0 -25 -22 -32 -50 -7 -27 -19 -45 -28 -40 -9 5
-21 -3 -26 -18 -13 -34 60 -158 85 -143 10 7 24 3 31 -9 7 -11 32 -20 56 -20
36 -1 38 -4 14 -20 -49 -31 19 -26 81 7 28 15 72 23 98 20 25 -4 58 2 72 13
18 15 33 13 55 -9 39 -39 62 -40 48 -3 -16 41 8 56 43 27 25 -21 28 -20 14 3
-13 22 -9 26 15 16 18 -7 38 -3 45 7 6 11 21 14 31 8 11 -7 31 -4 44 6 13 9
38 17 54 16 17 -1 37 7 45 18 9 14 14 12 15 -4 0 -14 9 -25 19 -25 11 0 15 14
8 30 -9 24 8 31 86 33 73 3 81 5 32 11 -100 13 -78 37 70 75 755 196 1025 343
1297 704 254 337 404 714 537 1347 l44 210 738 12 c886 14 976 28 1115 174 87
92 214 400 214 522 0 16 -305 22 -1080 22 l-1080 0 1 135 c1 183 31 405 58
432 16 16 255 26 777 34 809 11 836 14 995 122 63 42 1279 1522 1246 1516 -4
-1 -83 -32 -177 -69z"/>
<path d="M2576 5836 c-187 -233 -390 -645 -484 -979 -40 -142 -40 -167 2 -77
18 39 31 77 29 86 -9 41 228 578 260 591 9 3 17 19 17 35 0 30 58 122 130 205
22 25 36 51 32 57 -8 11 30 73 75 119 15 16 23 33 18 39 -6 6 -41 -29 -79 -76z"/>
<path d="M8728 4510 c0 -132 3 -183 7 -114 4 69 4 177 0 240 -4 63 -7 6 -7
-126z"/>
<path d="M522 4485 c-1 -135 5 -245 13 -245 15 0 11 394 -4 460 -3 17 -7 -80
-9 -215z"/>
<path d="M387 4490 c0 -99 3 -142 8 -96 4 47 4 128 0 180 -4 53 -8 15 -8 -84z"/>
<path d="M300 3874 c0 -59 8 -92 20 -84 25 16 25 111 0 150 -14 22 -19 3 -20
-66z"/>
<path d="M2520 1830 c0 -17 18 -30 40 -30 22 0 40 13 40 30 0 17 -18 30 -40
30 -22 0 -40 -13 -40 -30z"/>
</g>
</svg>
